#!OML:ASF H:\Terrain\Patient Classification 1\Walking\liu\liu.ASF
:FULLY-SPECIFIED
:DEGREES
33
root 15.967500 31.429800 -64.307999 15.131440 -16.475300 -14.818000
lowerback -16.520220 3.218480 7.839660
upperback -2.065340 3.276540 7.396460
thorax 7.127520 1.683044 3.636900
lowerneck -41.076599 -9.051220 -23.372200
upperneck 32.625000 -11.608800 29.008801
head 18.644560 -3.853380 12.415080
rclavicle 0.000000 0.000000
rhumerus -88.776001 41.623600 -186.130402
rradius 121.497200
rwrist -59.797001
rhand -59.725601 -62.101200
rfingers 14.250040
rthumb -6.369960 -122.013199
lclavicle 0.000000 0.000000
lhumerus -86.293404 -16.689960 182.470200
lradius 51.227600
lwrist 5.922160
lhand -22.629601 -52.185001
lfingers 14.250040
lthumb 29.434401 6.730120
rfemur 38.512199 14.056020 61.581600
rtibia 0.000000
rfoot -20.600401 -0.953404
rtoes -62.460201
lfemur -82.005798 10.979080 -17.577959
ltibia 48.347000
lfoot -17.539680 22.601200
ltoes -29.579201
34
root 16.018579 31.449400 -63.966000 15.106120 -17.290220 -14.600340
lowerback -16.730181 3.239780 7.190780
upperback -1.951480 3.333880 7.655140
thorax 7.337020 1.702792 4.286100
lowerneck -41.386799 -9.023440 -23.628201
upperneck 32.679199 -11.448260 28.939800
head 18.699480 -3.790540 12.461360
rclavicle -0.000000 -0.000000
rhumerus -89.118202 41.900398 -186.200607
rradius 121.042603
rwrist -59.175999
rhand -59.916401 -62.377399
rfingers 14.250040
rthumb -6.554180 -122.286598
lclavicle -0.000000 -0.000000
lhumerus -86.538002 -15.963760 182.665604
lradius 50.740601
lwrist 5.022460
lhand -17.371941 -47.027401
lfingers 14.250040
lthumb 34.497398 11.481640
rfemur 39.629601 14.449740 60.833199
rtibia -0.000000
rfoot -19.471720 -0.572986
rtoes -61.298000
lfemur -82.483597 12.767500 -18.684959
ltibia 50.521999
lfoot -12.447640 22.292400
ltoes -33.928001
35
root 16.077681 31.449600 -63.631199 15.186280 -17.545080 -14.229540
lowerback -17.158001 3.112380 6.497480
upperback -1.776292 3.187440 7.806520
thorax 7.736640 1.621242 4.834840
lowerneck -41.598801 -9.007480 -23.865999
upperneck 32.193802 -11.315960 29.115801
head 18.565100 -3.722180 12.571220
rclavicle 0.000000 0.000000
rhumerus -89.236603 41.892601 -186.226196
rradius 120.594398
rwrist -58.366001
rhand -60.722801 -64.917000
rfingers 14.250040
rthumb -7.333000 -124.813400
lclavicle 0.000000 0.000000
lhumerus -86.949402 -15.673260 183.057205
lradius 50.824001
lwrist 4.594220
lhand -18.646099 -46.536400
lfingers 14.250040
lthumb 33.271000 12.077860
rfemur 40.816200 14.322660 59.927601
rtibia -0.000000
rfoot -19.003120 -0.089014
rtoes -62.169998
lfemur -83.310799 13.943360 -19.881660
ltibia 53.023602
lfoot -8.320720 21.189400
ltoes -25.767200
36
root 16.143600 31.392401 -63.307400 15.320140 -17.243679 -13.960560
lowerback -17.380501 2.889920 6.006920
upperback -1.810782 2.924580 7.868560
thorax 7.815420 1.483072 5.150140
lowerneck -41.923801 -9.061120 -23.410999
upperneck 32.044601 -11.374280 28.625601
head 18.548981 -3.759780 12.298040
rclavicle -0.000000 -0.000000
rhumerus -89.266602 41.837200 -186.574005
rradius 119.280998
rwrist -57.778198
rhand -61.400200 -66.063202
rfingers 14.250040
rthumb -7.987060 -125.947800
lclavicle -0.000000 -0.000000
lhumerus -87.558197 -16.154221 183.767593
lradius 50.919800
lwrist 4.893560
lhand -30.252399 -53.903599
lfingers 14.250040
lthumb 22.086000 5.475340
rfemur 42.076401 13.681900 59.170799
rtibia -0.000000
rfoot -17.843519 -0.074576
rtoes -48.724400
lfemur -84.424400 14.384800 -20.777000
ltibia 55.890598
lfoot -4.857520 19.894360
ltoes -14.360960
37
root 16.207621 31.355801 -62.973598 15.490400 -16.893841 -13.954440
lowerback -17.634260 2.656620 5.890780
upperback -1.884414 2.610460 7.954280
thorax 7.882700 1.324692 5.273440
lowerneck -42.326000 -9.106620 -23.046200
upperneck 32.225201 -11.450760 28.266800
head 18.669979 -3.793060 12.098600
rclavicle -0.000000 -0.000000
rhumerus -89.402603 41.903801 -186.987793
rradius 117.688202
rwrist -57.462200
rhand -60.070400 -60.231998
rfingers 14.250040
rthumb -6.702840 -120.138802
lclavicle -0.000000 -0.000000
lhumerus -87.989998 -16.354799 184.149994
lradius 50.764000
lwrist 4.977400
lhand -18.071301 -44.074001
lfingers 14.250040
lthumb 33.824200 14.493320
rfemur 43.212399 13.019920 58.715599
rtibia -0.000000
rfoot -16.673960 -2.126500
rtoes 7.236340
lfemur -85.552597 15.198160 -21.637199
ltibia 58.855202
lfoot -2.574260 18.830139
ltoes -13.885440
38
root 16.289419 31.352400 -62.624401 14.963340 -16.258579 -13.369420
lowerback -17.304680 2.321340 5.585880
upperback -1.841312 2.217900 7.792180
thorax 7.749540 1.126606 5.219280
lowerneck -42.277599 -9.127320 -23.226601
upperneck 31.939800 -11.449960 28.501200
head 18.577820 -3.784180 12.206540
rclavicle -0.000000 0.000000
rhumerus -89.872597 41.484402 -187.218994
rradius 116.633003
rwrist -56.685600
rhand -59.077400 -59.747601
rfingers 14.250040
rthumb -5.743860 -119.668404
lclavicle -0.000000 0.000000
lhumerus -88.322197 -16.483919 184.379395
lradius 50.250000
lwrist 4.989460
lhand -5.220900 -40.810799
lfingers 14.250040
lthumb 46.175598 16.462820
rfemur 44.849201 11.934920 57.691601
rtibia 0.000000
rfoot -12.640500 0.854598
rtoes -47.146400
lfemur -85.880402 15.403580 -23.096399
ltibia 61.757999
lfoot -1.438692 18.175720
ltoes -17.565100
39
root 16.400520 31.342600 -62.270802 13.330140 -14.672440 -12.232540
lowerback -15.895520 1.553580 4.957660
upperback -1.612826 1.328286 7.579300
thorax 7.215060 0.677250 5.219040
lowerneck -42.583401 -9.031920 -23.506800
upperneck 32.115601 -11.206800 28.468000
head 18.663260 -3.679860 12.287000
rclavicle -0.000000 -0.000000
rhumerus -90.390999 41.150799 -187.328003
rradius 115.642601
rwrist -55.828400
rhand -59.809799 -67.208199
rfingers 14.250040
rthumb -6.451280 -127.119003
lclavicle -0.000000 -0.000000
lhumerus -88.598000 -16.146641 184.492004
lradius 49.510399
lwrist 4.114780
lhand 10.693740 -41.137402
lfingers 14.250040
lthumb 61.401600 13.778740
rfemur 47.449799 9.760000 56.155399
rtibia -0.000000
rfoot -14.321560 -3.558180
rtoes 20.781401
lfemur -85.012001 13.823700 -24.683599
ltibia 64.383598
lfoot -0.588992 17.534740
ltoes -16.077940
40
root 16.430059 31.365000 -61.945400 14.817180 -16.835020 -12.652780
lowerback -17.089279 2.329340 4.743960
upperback -2.020200 2.323900 7.903040
thorax 7.421020 1.165806 5.811260
lowerneck -42.838600 -9.223340 -23.991199
upperneck 32.281399 -11.286300 28.362600
head 18.787060 -3.748780 12.326680
rclavicle 0.000000 -0.000000
rhumerus -90.704201 40.362801 -187.081604
rradius 114.403999
rwrist -55.079201
rhand -60.644402 -72.060600
rfingers 14.250040
rthumb -7.257320 -131.958405
lclavicle 0.000000 -0.000000
lhumerus -88.590202 -15.730160 184.545197
lradius 48.543201
lwrist 2.528640
lhand 16.566401 -40.637199
lfingers 14.250040
lthumb 66.992599 13.151080
rfemur 46.701599 11.757560 55.807999
rtibia -0.000000
rfoot -10.774480 0.208528
rtoes -33.459000
lfemur -86.403000 16.148640 -24.740400
ltibia 66.787201
lfoot 0.876928 16.804880
ltoes -10.989720
41
root 16.500200 31.362600 -61.617199 15.352420 -17.712919 -12.997140
lowerback -17.379181 3.064220 5.204060
upperback -2.313020 3.246680 8.140640
thorax 7.254160 1.628660 5.910720
lowerneck -41.892799 -10.008540 -26.035601
upperneck 31.444401 -12.000280 29.450800
head 18.544319 -4.139540 12.942860
rclavicle -0.000000 -0.000000
rhumerus -91.227600 38.726200 -186.283997
rradius 113.396400
rwrist -54.002399
rhand -60.923000 -71.127998
rfingers 14.250040
rthumb -7.526180 -131.020996
lclavicle -0.000000 -0.000000
lhumerus -88.368797 -15.885640 185.110794
lradius 47.086399
lwrist 0.934816
lhand 13.493540 -37.947201
lfingers 14.250040
lthumb 64.069199 16.450760
rfemur 46.949600 12.387380 55.497601
rtibia -0.000000
rfoot -7.492140 1.902144
rtoes -48.580002
lfemur -87.241600 17.489540 -25.131399
ltibia 69.327202
lfoot 1.980838 15.461000
ltoes -8.436800
42
root 16.583139 31.338400 -61.280399 15.431360 -17.804581 -12.966340
lowerback -17.354740 2.471440 5.141520
upperback -2.431480 2.471800 8.085500
thorax 7.141080 1.242724 5.793980
lowerneck -42.368801 -9.374700 -24.981001
upperneck 31.680799 -11.407140 29.412001
head 18.585260 -3.781320 12.846220
rclavicle -0.000000 -0.000000
rhumerus -91.621002 39.667801 -187.735794
rradius 112.206398
rwrist -53.623402
rhand -61.697601 -69.086403
rfingers 14.250040
rthumb -8.274320 -128.965393
lclavicle -0.000000 -0.000000
lhumerus -88.419601 -14.004460 183.640198
lradius 46.326199
lwrist -0.442324
lhand 13.418080 -34.831200
lfingers 14.250040
lthumb 63.997398 19.581160
rfemur 47.912399 12.121880 55.087002
rtibia 0.000000
rfoot -5.028760 1.911864
rtoes -57.300999
lfemur -87.593201 18.028980 -25.903799
ltibia 71.530602
lfoot 1.749522 14.136500
ltoes -7.646320
43
root 16.662260 31.299999 -60.939201 15.305620 -17.950279 -12.828540
lowerback -17.138260 2.255940 5.120700
upperback -2.616020 2.206940 8.083360
thorax 6.836160 1.110486 5.762660
lowerneck -42.519199 -9.192820 -24.846001
upperneck 32.112400 -11.198700 29.292999
head 18.719160 -3.679840 12.826740
rclavicle -0.000000 0.000000
rhumerus -92.101799 40.121799 -188.529007
rradius 110.616600
rwrist -54.466999
rhand -63.981602 -68.068001
rfingers 14.250040
rthumb -10.479760 -127.898399
lclavicle -0.000000 0.000000
lhumerus -88.929001 -12.922060 182.935394
lradius 45.992401
lwrist -1.984918
lhand 13.236780 -34.285198
lfingers 14.250040
lthumb 63.824799 20.161800
rfemur 49.682201 11.832580 54.808998
rtibia 0.000000
rfoot -3.621620 1.772910
rtoes -68.931602
lfemur -87.599197 18.444241 -26.703199
ltibia 73.617203
lfoot 1.105280 13.207500
ltoes -4.452540
44
root 16.740120 31.431200 -60.578800 14.932340 -18.523520 -11.927360
lowerback -17.142860 2.256320 4.416980
upperback -2.376700 2.269280 7.894180
thorax 7.075520 1.133972 5.973420
lowerneck -42.677200 -9.193260 -24.478800
upperneck 31.818399 -11.145660 28.749399
head 18.606600 -3.683680 12.558740
rclavicle 0.000000 0.000000
rhumerus -91.417999 39.817402 -188.095200
rradius 108.523804
rwrist -52.791401
rhand -60.897202 -63.680401
rfingers 14.250040
rthumb -7.501400 -123.573799
lclavicle 0.000000 0.000000
lhumerus -88.468399 -12.396360 182.674393
lradius 45.011200
lwrist -3.015800
lhand 10.065460 -35.443199
lfingers 14.250040
lthumb 60.802399 19.584620
rfemur 49.971802 12.079900 52.740799
rtibia -0.000000
rfoot 1.801718 0.986226
rtoes -51.466999
lfemur -86.351402 18.695700 -28.140200
ltibia 75.057198
lfoot -0.222544 12.603880
ltoes -2.352020
